<svg width="12" height="13" viewBox="0 0 12 13" fill="none" xmlns="http://www.w3.org/2000/svg">
<path d="M2.5 0.404316C2.59472 0.404316 2.68556 0.441944 2.75254 0.508921C2.81952 0.575898 2.85714 0.666739 2.85714 0.761459V1.38086H8.57143V0.761459C8.57143 0.666739 8.60906 0.575898 8.67603 0.508921C8.74301 0.441944 8.83385 0.404316 8.92857 0.404316C9.02329 0.404316 9.11413 0.441944 9.18111 0.508921C9.24809 0.575898 9.28571 0.666739 9.28571 0.761459V1.38086H10C10.3789 1.38086 10.7422 1.53137 11.0102 1.79928C11.2781 2.06719 11.4286 2.43056 11.4286 2.80944V10.6666C11.4286 11.0455 11.2781 11.4088 11.0102 11.6767C10.7422 11.9446 10.3789 12.0952 10 12.0952H1.42857C1.04969 12.0952 0.686328 11.9446 0.418419 11.6767C0.15051 11.4088 0 11.0455 0 10.6666V4.23801H11.4286V3.52372H0V2.80944C0 2.43056 0.15051 2.06719 0.418419 1.79928C0.686328 1.53137 1.04969 1.38086 1.42857 1.38086H2.14286V0.761459C2.14286 0.666739 2.18048 0.575898 2.24746 0.508921C2.31444 0.441944 2.40528 0.404316 2.5 0.404316Z" fill="white"/>
</svg>
