<svg width="120" height="120" viewBox="0 0 120 120" fill="none" xmlns="http://www.w3.org/2000/svg">
<g clip-path="url(#clip0)">
<circle cx="55.9783" cy="59.9783" r="51.9783" fill="#7B7FDA"/>
<mask id="mask0" style="mask-type:alpha" maskUnits="userSpaceOnUse" x="4" y="8" width="104" height="104">
<circle cx="55.9783" cy="59.9783" r="51.9783" fill="#C4C4C4"/>
</mask>
<g mask="url(#mask0)">
<rect x="-16.2136" y="25.132" width="122.787" height="74.7885" rx="3.09244" fill="#B6C4CF"/>
<rect x="-12.865" y="28.4807" width="116.09" height="68.091" rx="1.54622" fill="#FFF5F5"/>
<rect x="-8.3999" y="35.1782" width="77.021" height="53.5798" rx="1.54622" fill="#FFB6A4"/>
<path d="M46.9936 61.2007C46.9936 70.6406 39.3411 78.2932 29.9011 78.2932C20.4612 78.2932 12.8086 70.6406 12.8086 61.2007C12.8086 51.7607 20.4612 44.1082 29.9011 44.1082C39.3411 44.1082 46.9936 51.7607 46.9936 61.2007Z" fill="#EA4444"/>
<path d="M37.8923 62.2078L25.7327 70.546C24.9225 71.1015 23.8213 70.5216 23.8213 69.539V52.8624C23.8213 51.88 24.9225 51.2999 25.7327 51.8554L37.8923 60.1936C38.5995 60.679 38.5995 61.7226 37.8923 62.2078Z" fill="#FFF5F5"/>
<path d="M84.667 86.7348C84.667 88.0834 83.5738 89.1766 82.2252 89.1766C80.8766 89.1766 79.7834 88.0834 79.7834 86.7348C79.7834 85.3862 80.8766 84.293 82.2252 84.293C83.5738 84.293 84.667 85.3862 84.667 86.7348ZM89.5506 84.293C88.202 84.293 87.1088 85.3862 87.1088 86.7348C87.1088 88.0834 88.202 89.1766 89.5506 89.1766C90.8992 89.1766 91.9924 88.0834 91.9924 86.7348C91.9924 85.3862 90.8992 84.293 89.5506 84.293ZM96.876 84.293C95.5274 84.293 94.4342 85.3862 94.4342 86.7348C94.4342 88.0834 95.5274 89.1766 96.876 89.1766C98.2246 89.1766 99.3178 88.0834 99.3178 86.7348C99.3178 85.3862 98.2246 84.293 96.876 84.293Z" fill="#FBC56D"/>
<path fill-rule="evenodd" clip-rule="evenodd" d="M68.3647 53.0381C66.6567 53.0381 65.2722 54.4227 65.2722 56.1306V67.8056C65.2722 69.5135 66.6567 70.8981 68.3647 70.8981H76.1333C76.1334 70.8982 76.1335 70.8984 76.1336 70.8986L80.2114 77.577C80.5148 78.0739 81.2378 78.0699 81.5356 77.5696L85.5068 70.8981H110.178C111.886 70.8981 113.271 69.5135 113.271 67.8056V56.1306C113.271 54.4227 111.886 53.0381 110.178 53.0381H68.3647Z" fill="#68BC98"/>
<rect x="71.9697" y="57.503" width="27.9062" height="3.34874" rx="0.773109" fill="#4DA47E"/>
<rect x="71.9697" y="64.2005" width="20.0924" height="3.34874" rx="0.773109" fill="#4DA47E"/>
<path fill-rule="evenodd" clip-rule="evenodd" d="M63.0641 19.5507C61.2012 19.5507 59.6909 21.061 59.6909 22.9239V35.1537C59.6909 37.0167 61.2012 38.5269 63.0641 38.5269H98.2051C98.1912 38.6997 98.2305 38.8772 98.3259 39.0335L102.774 46.3183C103.105 46.8603 103.894 46.8559 104.218 46.3102L108.603 38.9443C108.68 38.8144 108.719 38.6704 108.721 38.5269H113.246C115.109 38.5269 116.619 37.0167 116.619 35.1537V22.9239C116.619 21.061 115.109 19.5507 113.246 19.5507H63.0641Z" fill="#F9AD6D"/>
<rect x="66.9963" y="24.4212" width="30.4399" height="3.65279" rx="0.843304" fill="#D9833B"/>
<rect x="66.9963" y="31.7266" width="21.9167" height="3.65279" rx="0.843304" fill="#D9833B"/>
</g>
<mask id="mask1" style="mask-type:alpha" maskUnits="userSpaceOnUse" x="32" y="8" width="105" height="104">
<circle cx="84.855" cy="59.9783" r="51.9783" fill="#C4C4C4"/>
</mask>
<g mask="url(#mask1)">
<rect x="-16.2139" y="25.132" width="122.787" height="74.7885" rx="3.09244" fill="#B6C4CF"/>
<rect x="-12.8652" y="28.4807" width="116.09" height="68.091" rx="1.54622" fill="#FFF5F5"/>
<rect x="-8.40015" y="35.1782" width="77.021" height="53.5798" rx="1.54622" fill="#FFB6A4"/>
<path d="M46.9934 61.2007C46.9934 70.6406 39.3408 78.2932 29.9009 78.2932C20.4609 78.2932 12.8083 70.6406 12.8083 61.2007C12.8083 51.7607 20.4609 44.1082 29.9009 44.1082C39.3408 44.1082 46.9934 51.7607 46.9934 61.2007Z" fill="#EA4444"/>
<path d="M37.8921 62.2078L25.7325 70.546C24.9223 71.1015 23.821 70.5216 23.821 69.539V52.8624C23.821 51.88 24.9223 51.2999 25.7325 51.8554L37.8921 60.1936C38.5992 60.679 38.5992 61.7226 37.8921 62.2078Z" fill="#FFF5F5"/>
<path d="M84.6668 86.7348C84.6668 88.0834 83.5736 89.1766 82.225 89.1766C80.8764 89.1766 79.7832 88.0834 79.7832 86.7348C79.7832 85.3862 80.8764 84.293 82.225 84.293C83.5736 84.293 84.6668 85.3862 84.6668 86.7348ZM89.5504 84.293C88.2018 84.293 87.1086 85.3862 87.1086 86.7348C87.1086 88.0834 88.2018 89.1766 89.5504 89.1766C90.899 89.1766 91.9921 88.0834 91.9921 86.7348C91.9921 85.3862 90.899 84.293 89.5504 84.293ZM96.8757 84.293C95.5271 84.293 94.4339 85.3862 94.4339 86.7348C94.4339 88.0834 95.5271 89.1766 96.8757 89.1766C98.2243 89.1766 99.3175 88.0834 99.3175 86.7348C99.3175 85.3862 98.2243 84.293 96.8757 84.293Z" fill="#FBC56D"/>
<path fill-rule="evenodd" clip-rule="evenodd" d="M68.3644 53.0381C66.6565 53.0381 65.272 54.4227 65.272 56.1306V67.8056C65.272 69.5135 66.6565 70.8981 68.3644 70.8981H76.1331C76.1332 70.8982 76.1333 70.8984 76.1334 70.8986L80.2112 77.577C80.5146 78.0739 81.2375 78.0699 81.5353 77.5696L85.5065 70.8981H110.178C111.886 70.8981 113.271 69.5135 113.271 67.8056V56.1306C113.271 54.4227 111.886 53.0381 110.178 53.0381H68.3644Z" fill="#68BC98"/>
<rect x="71.9695" y="57.503" width="27.9062" height="3.34874" rx="0.773109" fill="#4DA47E"/>
<rect x="71.9695" y="64.2005" width="20.0924" height="3.34874" rx="0.773109" fill="#4DA47E"/>
<path fill-rule="evenodd" clip-rule="evenodd" d="M63.0639 19.5507C61.2009 19.5507 59.6907 21.061 59.6907 22.9239V35.1537C59.6907 37.0167 61.2009 38.5269 63.0639 38.5269H98.2048C98.191 38.6997 98.2303 38.8772 98.3257 39.0335L102.774 46.3183C103.105 46.8603 103.893 46.8559 104.218 46.3102L108.603 38.9443C108.68 38.8144 108.719 38.6704 108.721 38.5269H113.246C115.109 38.5269 116.619 37.0167 116.619 35.1537V22.9239C116.619 21.061 115.109 19.5507 113.246 19.5507H63.0639Z" fill="#F9AD6D"/>
<rect x="66.9961" y="24.4212" width="30.4399" height="3.65279" rx="0.843304" fill="#D9833B"/>
<rect x="66.9961" y="31.7266" width="21.9167" height="3.65279" rx="0.843304" fill="#D9833B"/>
</g>
</g>
<defs>
<clipPath id="clip0">
<rect width="120" height="120" fill="white"/>
</clipPath>
</defs>
</svg>
