<svg width="28" height="45" viewBox="0 0 28 45" fill="none" xmlns="http://www.w3.org/2000/svg">
<path fill-rule="evenodd" clip-rule="evenodd" d="M26.6053 17.6429C22.0677 9.78932 10.639 9.16527 4.33498 18.9016C-1.71519 28.2413 4.04411 52.2886 11.5275 52.2939C19.196 52.2939 31.9997 26.9773 26.6053 17.6429ZM21.8095 20.2081C18.721 14.8613 11.7242 14.6022 7.33989 22.7466C3.77008 29.3785 6.47785 44.0227 11.428 44.742C18.2873 45.7362 25.4798 26.565 21.8095 20.2081Z" fill="#F9AD6D"/>
<path d="M14.4267 45.4981C14.9079 41.5792 15.5267 36.8036 15.3469 33.1016C15.2676 31.4568 12.4117 32.2554 12.0045 34.154C11.4968 36.5075 11.0948 39.9979 10.9203 45.2971C10.878 46.7462 14.2257 47.1376 14.4267 45.4981Z" fill="#F9AD6D"/>
<path d="M8.54993 35.1219C6.08544 40.1567 20.994 33.6834 19.3757 31.6261C18.5031 30.5103 9.76631 32.631 8.54993 35.1219Z" fill="#F9AD6D"/>
<path d="M9.32398 28.8336C6.85949 33.8684 21.7681 27.3951 20.1498 25.3379C19.2772 24.2273 10.5404 26.3427 9.32398 28.8336Z" fill="#F9AD6D"/>
<path d="M15.4044 8.56773C19.0535 12.0529 20.0848 -0.972929 17.3771 0.0583506C15.9121 0.618943 13.601 6.84364 15.4044 8.56773Z" fill="#F9AD6D"/>
<path d="M26.7438 11.8573C26.8654 17.1671 36.2633 6.98119 33.7512 6.06097C32.3921 5.56384 26.6803 9.23414 26.7438 11.8573Z" fill="#F9AD6D"/>
<path d="M6.39769 12.3016C4.96976 17.6061 -1.92131 7.42554 0.812908 6.50532C2.29372 6.0029 7.10637 9.6732 6.39769 12.3016Z" fill="#F9AD6D"/>
<path d="M5.43316 44.0756C7.37938 42.3991 17.7927 41.4154 19.4586 43.4886C20.5851 44.8953 19.6384 52.4581 18.1629 53.2566C16.0263 54.4096 6.05193 54.7903 5.25864 53.3941C4.19034 51.5167 3.73023 45.5406 5.43316 44.0756Z" fill="#F9AD6D"/>
</svg>
